<?xml version="1.0" standalone="no"?>
<!DOCTYPE svg PUBLIC "-//W3C//DTD SVG 20010904//EN"
 "http://www.w3.org/TR/2001/REC-SVG-20010904/DTD/svg10.dtd">
<svg version="1.0" xmlns="http://www.w3.org/2000/svg"
 width="500.000000pt" height="500.000000pt" viewBox="0 0 500.000000 500.000000"
 preserveAspectRatio="xMidYMid meet">
<metadata>
Created by potrace 1.14, written by Peter Selinger 2001-2017
</metadata>
<g transform="translate(0.000000,500.000000) scale(0.100000,-0.100000)"
fill="#000000" stroke="none">
<path d="M2298 4744 c-4 -3 -83 -14 -138 -18 -14 -1 -31 -6 -38 -10 -7 -4 -12
-5 -12 -3 0 3 -19 0 -42 -5 -24 -5 -54 -12 -68 -14 -114 -22 -322 -95 -457
-160 -50 -24 -96 -44 -102 -44 -6 0 -11 -4 -11 -9 0 -5 -8 -11 -17 -15 -24 -8
-101 -53 -140 -82 -17 -13 -36 -24 -42 -24 -6 0 -11 -4 -11 -8 0 -4 -14 -16
-32 -26 -17 -11 -41 -27 -52 -37 -12 -9 -41 -34 -66 -54 -60 -50 -173 -158
-240 -230 -233 -252 -425 -608 -509 -946 -26 -103 -26 -106 -46 -224 -15 -88
-20 -177 -20 -335 0 -190 11 -324 36 -424 5 -23 11 -52 14 -66 7 -45 54 -205
84 -289 41 -109 156 -347 193 -396 17 -22 78 -117 78 -121 0 -5 7 -13 103
-129 79 -95 139 -158 228 -240 92 -84 192 -165 203 -165 4 0 15 -8 26 -18 22
-20 137 -90 237 -144 233 -125 544 -220 789 -241 23 -2 45 -6 50 -9 11 -7 391
-2 449 5 122 15 227 33 255 44 8 3 27 7 43 9 52 7 294 93 398 142 114 53 252
130 257 144 2 4 8 6 13 2 5 -3 9 -1 9 4 0 5 11 14 25 20 14 7 31 16 38 22 17
14 78 61 111 85 30 21 148 128 200 181 282 284 485 640 585 1025 27 107 42
178 46 224 1 11 6 45 11 75 17 109 9 503 -11 600 -3 14 -8 41 -11 60 -3 19 -9
51 -14 70 -5 19 -11 46 -14 60 -2 14 -16 63 -30 110 -86 294 -264 617 -460
838 -46 51 -203 206 -240 236 -21 17 -53 43 -70 57 -45 38 -184 133 -247 169
-84 48 -296 150 -311 150 -8 0 -18 4 -23 9 -26 25 -425 129 -495 129 -8 0 -31
4 -50 7 -37 8 -456 16 -462 9z m452 -209 c188 -33 258 -47 277 -57 13 -6 26
-9 29 -5 4 3 19 0 35 -8 15 -8 36 -17 46 -18 10 -2 31 -9 46 -15 16 -7 33 -12
39 -12 5 0 22 -6 36 -14 15 -7 70 -33 122 -57 52 -24 97 -46 100 -49 3 -3 16
-11 30 -18 30 -14 45 -24 123 -77 33 -22 71 -47 84 -57 22 -14 52 -38 137
-111 57 -49 141 -136 204 -210 83 -98 202 -264 202 -282 0 -8 4 -15 9 -17 10
-4 133 -248 124 -248 -3 0 -1 -6 4 -12 12 -16 66 -172 87 -254 22 -86 44 -203
53 -287 14 -131 6 -508 -12 -537 -2 -3 -6 -28 -10 -56 -8 -74 -88 -357 -105
-374 -3 -3 -6 -12 -8 -20 -2 -8 -15 -37 -29 -65 -13 -27 -24 -51 -24 -53 1 -3
-59 -120 -76 -147 -7 -11 -18 -31 -25 -45 -7 -14 -16 -29 -20 -35 -209 -286
-365 -444 -588 -597 -193 -131 -463 -250 -652 -285 -16 -3 -28 -10 -28 -15 0
-5 -4 -7 -9 -4 -5 4 -40 0 -78 -8 -107 -23 -204 -31 -373 -31 -139 0 -293 10
-309 19 -3 2 -28 7 -56 10 -27 4 -93 18 -145 32 -52 15 -99 27 -105 29 -5 1
-23 7 -38 13 -16 7 -33 12 -38 12 -5 0 -17 4 -27 9 -40 21 -113 51 -125 51 -7
0 -17 4 -23 9 -5 4 -54 32 -109 61 -55 29 -102 56 -105 60 -3 4 -16 13 -30 20
-66 34 -227 166 -336 274 -108 108 -263 300 -296 366 -7 14 -20 36 -29 50 -15
23 -102 189 -105 200 -1 7 -14 41 -29 75 -14 34 -65 182 -70 205 -1 8 -8 35
-15 59 -10 38 -22 100 -36 181 -25 152 -24 579 1 620 2 3 6 24 9 47 14 122
111 434 148 481 6 6 8 12 4 12 -6 0 60 129 98 190 40 64 119 182 130 194 6 6
29 34 51 61 140 176 372 373 575 488 138 78 336 158 500 201 105 28 133 33
295 55 66 9 409 6 465 -4z"/>
<path d="M2469 3477 c-21 -17 -24 -29 -29 -110 l-5 -92 -78 -27 c-43 -15 -98
-38 -123 -53 -146 -85 -214 -257 -178 -448 22 -116 81 -193 205 -269 59 -36
193 -96 229 -103 49 -9 174 -81 205 -118 19 -22 33 -43 30 -45 -3 -3 0 -11 5
-17 9 -10 16 -98 10 -115 -1 -3 -3 -13 -5 -23 -6 -30 -47 -84 -78 -102 -96
-57 -237 -51 -321 13 -51 39 -64 59 -91 135 -37 105 -160 119 -223 27 -29 -43
-25 -98 15 -179 51 -106 144 -177 290 -221 40 -12 76 -27 81 -33 6 -7 12 -45
14 -85 3 -64 7 -76 28 -92 23 -17 35 -19 102 -11 18 2 38 65 38 119 0 62 18
92 54 92 9 0 42 9 74 20 31 12 62 22 67 23 6 1 12 4 15 7 3 3 21 17 40 32 117
89 155 167 159 323 4 166 -55 271 -209 370 -61 39 -220 115 -241 115 -25 0
-161 75 -192 106 -59 60 -73 175 -31 257 30 57 86 89 164 94 101 6 178 -42
219 -140 11 -26 21 -49 21 -52 0 -3 0 -8 0 -12 0 -13 43 -59 67 -71 53 -29
132 -6 170 48 45 64 -10 225 -107 313 -54 49 -133 91 -192 102 -45 9 -51 23
-53 124 -1 67 -4 76 -28 97 -33 29 -84 29 -118 1z"/>
</g>
</svg>
